<?xml version="1.0" encoding="UTF-8" standalone="no"?>
<svg
   xmlns:dc="http://purl.org/dc/elements/1.1/"
   xmlns:cc="http://creativecommons.org/ns#"
   xmlns:rdf="http://www.w3.org/1999/02/22-rdf-syntax-ns#"
   xmlns:svg="http://www.w3.org/2000/svg"
   xmlns="http://www.w3.org/2000/svg"
   id="svg8"
   version="1.1"
   viewBox="0 0 42.146511 10.169922"
   height="10.169922mm"
   width="42.146511mm">
  <defs
     id="defs2" />
  <metadata
     id="metadata5">
    <rdf:RDF>
      <cc:Work
         rdf:about="">
        <dc:format>image/svg+xml</dc:format>
        <dc:type
           rdf:resource="http://purl.org/dc/dcmitype/StillImage" />
        <dc:title></dc:title>
      </cc:Work>
    </rdf:RDF>
  </metadata>
  <g
     transform="translate(-1.0244548e-8,-286.83009)"
     id="layer1">
    <g
       id="text817"
       style="font-style:normal;font-weight:normal;font-size:10.58333302px;line-height:1.25;font-family:sans-serif;letter-spacing:0px;word-spacing:0px;fill:#000000;fill-opacity:1;stroke:none;stroke-width:0.26458332"
       aria-label="MikePay">
      <path
         id="path873"
         style="fill:#03abfd;fill-opacity:1"
         d="M 8.0666908,294.87094 H 6.0926512 v -5.15214 l -1.4262695,3.34347 H 3.2969563 L 1.8706868,289.7188 v 5.15214 H 1.0244548e-8 v -7.69462 H 2.3047688 l 1.7311605,3.86023 1.7259927,-3.86023 h 2.3047688 z" />
      <path
         id="path875"
         style="fill:#03abfd;fill-opacity:1"
         d="M 10.747705,294.87094 H 8.8873536 v -5.80326 h 1.8603514 z m 0.05168,-6.63008 H 8.8356772 v -1.41077 h 1.9637048 z" />
      <path
         id="path877"
         style="fill:#03abfd;fill-opacity:1"
         d="m 17.630014,294.87094 h -2.165243 l -1.627807,-2.52698 -0.506429,0.61495 v 1.91203 h -1.860352 v -8.04085 h 1.860352 v 4.80074 l 2.005045,-2.56315 h 2.144572 l -2.087728,2.50114 z" />
      <path
         id="path879"
         style="fill:#03abfd;fill-opacity:1"
         d="m 23.261753,292.31296 h -4.258138 q 0.04134,0.68213 0.516764,1.04386 0.480591,0.36174 1.410767,0.36174 0.589111,0 1.142049,-0.21188 0.552938,-0.21187 0.873332,-0.45475 h 0.206705 v 1.49345 q -0.630452,0.25321 -1.188557,0.3669 -0.558106,0.11369 -1.235067,0.11369 -1.746664,0 -2.676839,-0.78548 -0.930176,-0.78548 -0.930176,-2.23759 0,-1.43661 0.878499,-2.27376 0.883667,-0.84233 2.418457,-0.84233 1.415934,0 2.129069,0.7183 0.713135,0.71314 0.713135,2.05672 z m -1.850016,-1.09037 q -0.0155,-0.58395 -0.289388,-0.8785 -0.273885,-0.29456 -0.852661,-0.29456 -0.537435,0 -0.883667,0.27905 -0.346232,0.27906 -0.387574,0.89401 z" />
      <path
         id="path881"
         style="font-style:normal;font-variant:normal;font-weight:bold;font-stretch:normal;font-family:sans-serif;-inkscape-font-specification:'sans-serif Bold';letter-spacing:-1.03452075px;stroke-width:0.26458332"
         d="m 29.994199,289.60511 q 0,0.51677 -0.180868,1.01286 -0.180867,0.49093 -0.516764,0.82682 -0.45992,0.45476 -1.028361,0.6873 -0.563273,0.23254 -1.405599,0.23254 h -1.235066 v 2.50631 h -1.984375 v -7.69462 h 3.26595 q 0.733805,0 1.235067,0.12919 0.506429,0.12403 0.894002,0.37724 0.465088,0.30489 0.707967,0.78031 0.248047,0.47543 0.248047,1.14205 z m -2.051554,0.0465 q 0,-0.32556 -0.1757,-0.5581 -0.1757,-0.23772 -0.408244,-0.33073 -0.310059,-0.12403 -0.604614,-0.13436 -0.294556,-0.0155 -0.785482,-0.0155 h -0.341064 v 2.30476 h 0.56844 q 0.506429,0 0.831991,-0.062 0.330729,-0.062 0.552938,-0.24804 0.191202,-0.16537 0.273885,-0.39275 0.08785,-0.23254 0.08785,-0.56327 z" />
      <path
         id="path883"
         style="font-style:normal;font-variant:normal;font-weight:bold;font-stretch:normal;font-family:sans-serif;-inkscape-font-specification:'sans-serif Bold';letter-spacing:-1.03452075px;stroke-width:0.26458332"
         d="m 33.770754,293.35682 v -1.20923 q -0.377238,0.031 -0.816488,0.0879 -0.439249,0.0517 -0.666626,0.12403 -0.279053,0.0879 -0.428914,0.25838 -0.144694,0.16536 -0.144694,0.43925 0,0.18087 0.03101,0.29455 0.03101,0.11369 0.155029,0.21705 0.118856,0.10335 0.28422,0.15502 0.165365,0.0465 0.516765,0.0465 0.279052,0 0.563273,-0.11368 0.289388,-0.11369 0.506429,-0.29973 z m 0,0.89917 q -0.149862,0.11369 -0.372071,0.27389 -0.222208,0.16019 -0.418579,0.25321 -0.273885,0.12402 -0.56844,0.18087 -0.294556,0.062 -0.645956,0.062 -0.826823,0 -1.384928,-0.5116 -0.558106,-0.51159 -0.558106,-1.30741 0,-0.63562 0.284221,-1.0387 0.28422,-0.40307 0.806152,-0.63562 0.516764,-0.23254 1.281576,-0.33073 0.764811,-0.0982 1.586466,-0.14469 v -0.031 q 0,-0.48059 -0.392741,-0.66145 -0.392741,-0.18604 -1.157552,-0.18604 -0.45992,0 -0.981852,0.16537 -0.521932,0.16019 -0.749308,0.24804 h -0.170533 v -1.40043 q 0.294556,-0.0775 0.956014,-0.18087 0.666626,-0.10852 1.333252,-0.10852 1.586467,0 2.289266,0.49093 0.707967,0.48576 0.707967,1.52962 v 3.94808 h -1.844848 z" />
      <path
         id="path885"
         style="font-style:normal;font-variant:normal;font-weight:bold;font-stretch:normal;font-family:sans-serif;-inkscape-font-specification:'sans-serif Bold';letter-spacing:-1.03452075px;stroke-width:0.26458332"
         d="m 38.911566,292.81939 1.322917,-3.75171 h 1.912028 l -3.224609,7.93233 h -2.015381 l 0.91984,-2.17041 -2.25826,-5.76192 h 1.953369 z" />
    </g>
  </g>
</svg>
